# xmcd
#
# Track frame offsets:
#	150
#	12715
#	25970
#	38140
#	53220
#	67855
#	82680
#	100255
#	118268
#	135178
#	153183
#	166150
#	179045
#	190843
#	201420
#	216030
#	228920
#	240198
#	252888
#	265870
#	282410
#	297453
#
# Disc length: 4152 seconds
#
# Revision: 0
# Processed by: cddbd v1.5.1PL0 Copyright (c) Steve Scherf et al.
# Submitted via: audiograbber 1.83.01
#
DISCID=31103616
DTITLE=Hank Snow - The Singing Ranger, Vol. 4 (7 of 9)
DYEAR=1900
DGENRE=
TTITLE0=Hank Snow &Kelly Foxton - Things
TTITLE1=Hank Snow &Kelly Foxton - The Pain Didn't Show
TTITLE2=Hank Snow &Kelly Foxton - Stop Me from Loving You
TTITLE3=Hank Snow &Kelly Foxton - My First Night Alone
TTITLE4=Hank Snow &Kelly Foxton - It Was Love
TTITLE5=Hank Snow &Kelly Foxton - All I Want to Do Is Touch You
TTITLE6=Hank Snow &Kelly Foxton - There Was Something About You
TTITLE7=Hank Snow &Kelly Foxton - What We Had Is Over
TTITLE8=Hank Snow &Kelly Foxton - Stay Awhile
TTITLE9=Hank Snow &Kelly Foxton - Hasn't It Been Good Together
TTITLE10=Hank Snow &Kelly Foxton - After the Love Is Gone
TTITLE11=Hank Snow &Kelly Foxton - Check
TTITLE12=Hank Snow &Kelly Foxton - Forbidden Lovers
TTITLE13=Hank Snow &Kelly Foxton - Love Takes Two
TTITLE14=Hank Snow &Kelly Foxton - It's Too Far Gone
TTITLE15=Hank Snow &Kelly Foxton - It's over, over Nothin'
TTITLE16=Hank Snow &Kelly Foxton - The First Hurt
TTITLE17=Hank Snow and Willie Nelson - The Golden Rocket
TTITLE18=Hank Snow and Willie Nelson - I've Been Everywhere
TTITLE19=Hank Snow and Willie Nelson - I Almost Lost My Mind
TTITLE20=Hank Snow and Willie Nelson - Caribbean
TTITLE21=Hank Snow and Willie Nelson - Brand on My Heart
EXTD=
EXTT0=
EXTT1=
EXTT2=
EXTT3=
EXTT4=
EXTT5=
EXTT6=
EXTT7=
EXTT8=
EXTT9=
EXTT10=
EXTT11=
EXTT12=
EXTT13=
EXTT14=
EXTT15=
EXTT16=
EXTT17=
EXTT18=
EXTT19=
EXTT20=
EXTT21=
PLAYORDER=
